<svg width="24" height="25" viewBox="0 0 24 25" fill="none" xmlns="http://www.w3.org/2000/svg">
<path fill-rule="evenodd" clip-rule="evenodd" d="M12 23C17.5228 23 22 18.5228 22 13C22 7.47715 17.5228 3 12 3C6.47715 3 2 7.47715 2 13C2 18.5228 6.47715 23 12 23ZM8.29289 9.29289C8.68342 8.90237 9.31658 8.90237 9.70711 9.29289L12 11.5858L14.2929 9.29289C14.6834 8.90237 15.3166 8.90237 15.7071 9.29289C16.0976 9.68342 16.0976 10.3166 15.7071 10.7071L13.4142 13L15.7071 15.2929C16.0976 15.6834 16.0976 16.3166 15.7071 16.7071C15.3166 17.0976 14.6834 17.0976 14.2929 16.7071L12 14.4142L9.70711 16.7071C9.31658 17.0976 8.68342 17.0976 8.29289 16.7071C7.90237 16.3166 7.90237 15.6834 8.29289 15.2929L10.5858 13L8.29289 10.7071C7.90237 10.3166 7.90237 9.68342 8.29289 9.29289Z" fill="#1B1B1B"/>
</svg>
