<svg width="23" height="29" viewBox="0 0 23 29" fill="none" xmlns="http://www.w3.org/2000/svg">
<path d="M19.75 16.1225V11.75C19.748 9.80179 19.0567 7.91714 17.7983 6.42981C16.54 4.94249 14.796 3.94845 12.875 3.62375V2.125C12.875 1.76033 12.7301 1.41059 12.4723 1.15273C12.2144 0.894866 11.8647 0.75 11.5 0.75C11.1353 0.75 10.7856 0.894866 10.5277 1.15273C10.2699 1.41059 10.125 1.76033 10.125 2.125V3.62375C8.20404 3.94845 6.45997 4.94249 5.20165 6.42981C3.94334 7.91714 3.25197 9.80179 3.25 11.75V16.1225C2.44762 16.4062 1.75262 16.9311 1.26029 17.6253C0.767958 18.3195 0.502392 19.149 0.5 20V22.75C0.5 23.1147 0.644866 23.4644 0.902728 23.7223C1.16059 23.9801 1.51033 24.125 1.875 24.125H6.1925C6.50914 25.2901 7.20038 26.3187 8.15957 27.052C9.11876 27.7853 10.2926 28.1826 11.5 28.1826C12.7074 28.1826 13.8812 27.7853 14.8404 27.052C15.7996 26.3187 16.4909 25.2901 16.8075 24.125H21.125C21.4897 24.125 21.8394 23.9801 22.0973 23.7223C22.3551 23.4644 22.5 23.1147 22.5 22.75V20C22.4976 19.149 22.232 18.3195 21.7397 17.6253C21.2474 16.9311 20.5524 16.4062 19.75 16.1225V16.1225ZM6 11.75C6 10.2913 6.57946 8.89236 7.61091 7.86091C8.64236 6.82946 10.0413 6.25 11.5 6.25C12.9587 6.25 14.3576 6.82946 15.3891 7.86091C16.4205 8.89236 17 10.2913 17 11.75V15.875H6V11.75ZM11.5 25.5C11.0201 25.4971 10.5493 25.3687 10.1344 25.1274C9.7195 24.8862 9.37495 24.5406 9.135 24.125H13.865C13.625 24.5406 13.2805 24.8862 12.8656 25.1274C12.4507 25.3687 11.9799 25.4971 11.5 25.5ZM19.75 21.375H3.25V20C3.25 19.6353 3.39487 19.2856 3.65273 19.0277C3.91059 18.7699 4.26033 18.625 4.625 18.625H18.375C18.7397 18.625 19.0894 18.7699 19.3473 19.0277C19.6051 19.2856 19.75 19.6353 19.75 20V21.375Z" fill="#F1255F"/>
</svg>
