<svg width="34" height="33" viewBox="0 0 34 33" fill="none" xmlns="http://www.w3.org/2000/svg">
<path d="M25.25 18.1225V13.75C25.248 11.8018 24.5567 9.91714 23.2983 8.42981C22.04 6.94249 20.296 5.94845 18.375 5.62375V4.125C18.375 3.76033 18.2301 3.41059 17.9723 3.15273C17.7144 2.89487 17.3647 2.75 17 2.75C16.6353 2.75 16.2856 2.89487 16.0277 3.15273C15.7699 3.41059 15.625 3.76033 15.625 4.125V5.62375C13.704 5.94845 11.96 6.94249 10.7017 8.42981C9.44334 9.91714 8.75197 11.8018 8.75 13.75V18.1225C7.94762 18.4062 7.25262 18.9311 6.76029 19.6253C6.26796 20.3195 6.00239 21.149 6 22V24.75C6 25.1147 6.14487 25.4644 6.40273 25.7223C6.66059 25.9801 7.01033 26.125 7.375 26.125H11.6925C12.0091 27.2901 12.7004 28.3187 13.6596 29.052C14.6188 29.7853 15.7926 30.1826 17 30.1826C18.2074 30.1826 19.3812 29.7853 20.3404 29.052C21.2996 28.3187 21.9909 27.2901 22.3075 26.125H26.625C26.9897 26.125 27.3394 25.9801 27.5973 25.7223C27.8551 25.4644 28 25.1147 28 24.75V22C27.9976 21.149 27.732 20.3195 27.2397 19.6253C26.7474 18.9311 26.0524 18.4062 25.25 18.1225ZM11.5 13.75C11.5 12.2913 12.0795 10.8924 13.1109 9.86091C14.1424 8.82946 15.5413 8.25 17 8.25C18.4587 8.25 19.8576 8.82946 20.8891 9.86091C21.9205 10.8924 22.5 12.2913 22.5 13.75V17.875H11.5V13.75ZM17 27.5C16.5201 27.4971 16.0493 27.3687 15.6344 27.1274C15.2195 26.8862 14.875 26.5406 14.635 26.125H19.365C19.125 26.5406 18.7805 26.8862 18.3656 27.1274C17.9507 27.3687 17.4799 27.4971 17 27.5ZM25.25 23.375H8.75V22C8.75 21.6353 8.89487 21.2856 9.15273 21.0277C9.41059 20.7699 9.76033 20.625 10.125 20.625H23.875C24.2397 20.625 24.5894 20.7699 24.8473 21.0277C25.1051 21.2856 25.25 21.6353 25.25 22V23.375Z" fill="#F1255F"/>
</svg>
