<svg width="24" height="25" viewBox="0 0 24 25" fill="none" xmlns="http://www.w3.org/2000/svg">
<path d="M3.6 20.187H8.688C8.84593 20.1879 9.00248 20.1576 9.14869 20.0979C9.29489 20.0382 9.42787 19.9503 9.54 19.8391L17.844 11.5255L21.252 8.19046C21.3645 8.07894 21.4537 7.94626 21.5147 7.80007C21.5756 7.65388 21.607 7.49708 21.607 7.33871C21.607 7.18034 21.5756 7.02354 21.5147 6.87735C21.4537 6.73116 21.3645 6.59848 21.252 6.48696L16.164 1.34045C16.0524 1.22801 15.9197 1.13876 15.7735 1.07786C15.6273 1.01695 15.4704 0.985596 15.312 0.985596C15.1536 0.985596 14.9967 1.01695 14.8505 1.07786C14.7043 1.13876 14.5716 1.22801 14.46 1.34045L11.076 4.73547L2.748 13.0491C2.63678 13.1612 2.54879 13.2941 2.48907 13.4403C2.42936 13.5864 2.39909 13.7429 2.4 13.9008V18.9873C2.4 19.3055 2.52643 19.6106 2.75147 19.8356C2.97652 20.0606 3.28174 20.187 3.6 20.187ZM15.312 3.88371L18.708 7.27873L17.004 8.98223L13.608 5.58722L15.312 3.88371ZM4.8 14.3927L11.916 7.27873L15.312 10.6737L8.196 17.7877H4.8V14.3927ZM22.8 22.5863H1.2C0.88174 22.5863 0.576515 22.7127 0.351472 22.9377C0.126428 23.1626 0 23.4678 0 23.7859C0 24.1041 0.126428 24.4092 0.351472 24.6342C0.576515 24.8592 0.88174 24.9856 1.2 24.9856H22.8C23.1183 24.9856 23.4235 24.8592 23.6485 24.6342C23.8736 24.4092 24 24.1041 24 23.7859C24 23.4678 23.8736 23.1626 23.6485 22.9377C23.4235 22.7127 23.1183 22.5863 22.8 22.5863Z" fill="#1B1B1B"/>
</svg>
