<svg width="22" height="29" viewBox="0 0 22 29" fill="none" xmlns="http://www.w3.org/2000/svg">
<path d="M12.375 17.25H6.875C6.51033 17.25 6.16059 17.3949 5.90273 17.6527C5.64487 17.9106 5.5 18.2603 5.5 18.625C5.5 18.9897 5.64487 19.3394 5.90273 19.5973C6.16059 19.8551 6.51033 20 6.875 20H12.375C12.7397 20 13.0894 19.8551 13.3473 19.5973C13.6051 19.3394 13.75 18.9897 13.75 18.625C13.75 18.2603 13.6051 17.9106 13.3473 17.6527C13.0894 17.3949 12.7397 17.25 12.375 17.25ZM17.875 3.5H16.2525C15.9688 2.69762 15.4439 2.00262 14.7497 1.51029C14.0555 1.01796 13.226 0.752392 12.375 0.75H9.625C8.77395 0.752392 7.94447 1.01796 7.25029 1.51029C6.5561 2.00262 6.03118 2.69762 5.7475 3.5H4.125C3.03098 3.5 1.98177 3.9346 1.20818 4.70818C0.434597 5.48177 0 6.53098 0 7.625V24.125C0 25.219 0.434597 26.2682 1.20818 27.0418C1.98177 27.8154 3.03098 28.25 4.125 28.25H17.875C18.969 28.25 20.0182 27.8154 20.7918 27.0418C21.5654 26.2682 22 25.219 22 24.125V7.625C22 6.53098 21.5654 5.48177 20.7918 4.70818C20.0182 3.9346 18.969 3.5 17.875 3.5V3.5ZM8.25 4.875C8.25 4.51033 8.39487 4.16059 8.65273 3.90273C8.91059 3.64487 9.26033 3.5 9.625 3.5H12.375C12.7397 3.5 13.0894 3.64487 13.3473 3.90273C13.6051 4.16059 13.75 4.51033 13.75 4.875V6.25H8.25V4.875ZM19.25 24.125C19.25 24.4897 19.1051 24.8394 18.8473 25.0973C18.5894 25.3551 18.2397 25.5 17.875 25.5H4.125C3.76033 25.5 3.41059 25.3551 3.15273 25.0973C2.89487 24.8394 2.75 24.4897 2.75 24.125V7.625C2.75 7.26033 2.89487 6.91059 3.15273 6.65273C3.41059 6.39487 3.76033 6.25 4.125 6.25H5.5V7.625C5.5 7.98967 5.64487 8.33941 5.90273 8.59727C6.16059 8.85513 6.51033 9 6.875 9H15.125C15.4897 9 15.8394 8.85513 16.0973 8.59727C16.3551 8.33941 16.5 7.98967 16.5 7.625V6.25H17.875C18.2397 6.25 18.5894 6.39487 18.8473 6.65273C19.1051 6.91059 19.25 7.26033 19.25 7.625V24.125ZM15.125 11.75H6.875C6.51033 11.75 6.16059 11.8949 5.90273 12.1527C5.64487 12.4106 5.5 12.7603 5.5 13.125C5.5 13.4897 5.64487 13.8394 5.90273 14.0973C6.16059 14.3551 6.51033 14.5 6.875 14.5H15.125C15.4897 14.5 15.8394 14.3551 16.0973 14.0973C16.3551 13.8394 16.5 13.4897 16.5 13.125C16.5 12.7603 16.3551 12.4106 16.0973 12.1527C15.8394 11.8949 15.4897 11.75 15.125 11.75Z" fill="#1B1B1B"/>
</svg>
