<svg width="24" height="27" viewBox="0 0 24 27" fill="none" xmlns="http://www.w3.org/2000/svg">
<path d="M9.33333 21.2677C9.68696 21.2677 10.0261 21.1276 10.2761 20.8784C10.5262 20.6291 10.6667 20.291 10.6667 19.9385V11.9631C10.6667 11.6105 10.5262 11.2724 10.2761 11.0232C10.0261 10.7739 9.68696 10.6338 9.33333 10.6338C8.97971 10.6338 8.64057 10.7739 8.39052 11.0232C8.14048 11.2724 8 11.6105 8 11.9631V19.9385C8 20.291 8.14048 20.6291 8.39052 20.8784C8.64057 21.1276 8.97971 21.2677 9.33333 21.2677ZM22.6667 5.31692H17.3333V3.98769C17.3333 2.93009 16.9119 1.91581 16.1618 1.16797C15.4116 0.420131 14.3942 0 13.3333 0H10.6667C9.6058 0 8.58838 0.420131 7.83824 1.16797C7.08809 1.91581 6.66667 2.93009 6.66667 3.98769V5.31692H1.33333C0.979711 5.31692 0.640573 5.45697 0.390524 5.70625C0.140476 5.95553 0 6.29362 0 6.64615C0 6.99869 0.140476 7.33678 0.390524 7.58606C0.640573 7.83534 0.979711 7.97538 1.33333 7.97538H2.66667V22.5969C2.66667 23.6545 3.08809 24.6688 3.83824 25.4166C4.58839 26.1645 5.6058 26.5846 6.66667 26.5846H17.3333C18.3942 26.5846 19.4116 26.1645 20.1618 25.4166C20.9119 24.6688 21.3333 23.6545 21.3333 22.5969V7.97538H22.6667C23.0203 7.97538 23.3594 7.83534 23.6095 7.58606C23.8595 7.33678 24 6.99869 24 6.64615C24 6.29362 23.8595 5.95553 23.6095 5.70625C23.3594 5.45697 23.0203 5.31692 22.6667 5.31692ZM9.33333 3.98769C9.33333 3.63516 9.47381 3.29706 9.72386 3.04778C9.97391 2.79851 10.313 2.65846 10.6667 2.65846H13.3333C13.687 2.65846 14.0261 2.79851 14.2761 3.04778C14.5262 3.29706 14.6667 3.63516 14.6667 3.98769V5.31692H9.33333V3.98769ZM18.6667 22.5969C18.6667 22.9495 18.5262 23.2876 18.2761 23.5368C18.0261 23.7861 17.687 23.9262 17.3333 23.9262H6.66667C6.31305 23.9262 5.97391 23.7861 5.72386 23.5368C5.47381 23.2876 5.33333 22.9495 5.33333 22.5969V7.97538H18.6667V22.5969ZM14.6667 21.2677C15.0203 21.2677 15.3594 21.1276 15.6095 20.8784C15.8595 20.6291 16 20.291 16 19.9385V11.9631C16 11.6105 15.8595 11.2724 15.6095 11.0232C15.3594 10.7739 15.0203 10.6338 14.6667 10.6338C14.313 10.6338 13.9739 10.7739 13.7239 11.0232C13.4738 11.2724 13.3333 11.6105 13.3333 11.9631V19.9385C13.3333 20.291 13.4738 20.6291 13.7239 20.8784C13.9739 21.1276 14.313 21.2677 14.6667 21.2677Z" fill="#1B1B1B"/>
</svg>
